<svg xmlns:mydata="http://www.w3.org/2000/svg" mydata:contrastcolor="101820" mydata:template="Default" mydata:presentation="2.5" mydata:layouttype="undefined" mydata:specialfontid="undefined" mydata:id1="129" mydata:id2="128" mydata:companyname="duck's" mydata:companytagline="" version="1.1" xmlns="http://www.w3.org/2000/svg" xmlns:xlink="http://www.w3.org/1999/xlink" viewBox="0 0 550 470"><g fill="#da291c" fill-rule="none" stroke="none" stroke-width="1" stroke-linecap="butt" stroke-linejoin="miter" stroke-miterlimit="10" stroke-dasharray="" stroke-dashoffset="0" font-family="none" font-weight="none" font-size="none" text-anchor="none" style="mix-blend-mode: normal"><g data-paper-data="{&quot;isGlobalGroup&quot;:true,&quot;bounds&quot;:{&quot;x&quot;:138.44151464502428,&quot;y&quot;:115.00000000000003,&quot;width&quot;:273.1169707099514,&quot;height&quot;:239.99999999999997}}"><g data-paper-data="{&quot;isPrimaryText&quot;:true}" fill-rule="nonzero"><path d="M148.09149,344.72457h7.14813c6.13548,0 11.39233,-2.18911 15.77056,-6.56734c4.34844,-4.34844 6.52267,-9.59041 6.52267,-15.72588c0,-6.16526 -2.17422,-11.42211 -6.52267,-15.77056c-4.37823,-4.37823 -9.63508,-6.56734 -15.77056,-6.56734h-7.14813zM138.44151,354.37454v-63.93107h16.7981c8.81603,0 16.35134,3.12731 22.60596,9.38192c6.22483,6.25461 9.33724,13.78993 9.33724,22.60596c0,8.78624 -3.11241,16.30667 -9.33724,22.56128c-6.25461,6.25461 -13.78993,9.38192 -22.60596,9.38192z" data-paper-data="{&quot;glyphName&quot;:&quot;D&quot;,&quot;glyphIndex&quot;:0,&quot;firstGlyphOfWord&quot;:true,&quot;word&quot;:1}"></path><path d="M218.50055,354.95532c-6.25461,0 -11.61571,-2.2189 -16.08329,-6.65669c-4.4378,-4.4378 -6.65669,-9.79889 -6.65669,-16.08329v-41.81655h9.73932v41.81655c0,3.60385 1.26581,6.67159 3.79744,9.20322c2.56141,2.56141 5.62915,3.84212 9.20322,3.84212c3.60385,0 6.67159,-1.28071 9.20322,-3.84212c2.56141,-2.53163 3.84212,-5.59937 3.84212,-9.20322v-41.81655h9.73932v41.81655c0,6.2844 -2.23379,11.64549 -6.70137,16.08329c-4.4378,4.4378 -9.79889,6.65669 -16.08329,6.65669z" data-paper-data="{&quot;glyphName&quot;:&quot;U&quot;,&quot;glyphIndex&quot;:1,&quot;word&quot;:1}"></path><path d="M282.02954,345.26068c-6.31418,0 -11.70506,-2.23379 -16.17264,-6.70137c-4.46758,-4.46758 -6.70137,-9.85846 -6.70137,-16.17264c0,-6.31418 2.23379,-11.70506 6.70137,-16.17264c4.46758,-4.49736 9.85846,-6.74605 16.17264,-6.74605c3.8719,0 7.49064,0.9233 10.85622,2.7699v-10.63284c-3.5145,-1.22114 -7.13324,-1.83171 -10.85622,-1.83171c-8.99473,0 -16.67897,3.18687 -23.05271,9.56062c-6.37375,6.37375 -9.56062,14.05799 -9.56062,23.05271c0,8.99473 3.18687,16.67897 9.56062,23.05271c6.37375,6.37375 14.05799,9.56062 23.05271,9.56062c3.72298,0 7.34172,-0.62546 10.85622,-1.87638v-10.58817c-3.36558,1.81682 -6.98432,2.72522 -10.85622,2.72522z" data-paper-data="{&quot;glyphName&quot;:&quot;C&quot;,&quot;glyphIndex&quot;:2,&quot;word&quot;:1}"></path><path d="M333.40672,290.44347l-22.3379,27.74367v-27.74367h-9.69465v63.93107h9.69465v-20.6849l2.99328,-3.70809l20.05944,24.39299h12.59858l-26.44808,-32.1219l25.55456,-31.80917z" data-paper-data="{&quot;glyphName&quot;:&quot;K&quot;,&quot;glyphIndex&quot;:3,&quot;word&quot;:1}"></path><path d="M363.92029,295.22378c-0.02978,-0.23827 -0.07446,-0.47654 -0.13403,-0.71481c0,0.08935 -0.01489,0.07446 -0.04468,-0.04468c0,-0.02978 0,-0.04468 0,-0.04468c0,-0.02978 0,-0.04468 0,-0.04468c0,0 0,-0.01489 0,-0.04468v0c-0.41697,-1.31049 -1.19135,-2.38271 -2.32314,-3.21666c-1.13179,-0.83395 -2.3976,-1.25092 -3.79744,-1.25092c-1.78703,0 -3.30601,0.62546 -4.55693,1.87638c-1.25092,1.25092 -1.87638,2.7699 -1.87638,4.55693c0,1.75725 0.62546,3.26133 1.87638,4.51226c1.25092,1.25092 2.7699,1.87638 4.55693,1.87638c0.26805,0 0.56589,-0.01489 0.89352,-0.04468c-0.50633,1.75725 -1.62322,3.1422 -3.35069,4.15485l1.83171,2.45717c3.5145,-1.51898 5.74829,-3.96125 6.70137,-7.32683c0.59568,-2.08487 0.67014,-4.31866 0.22338,-6.70137z" data-paper-data="{&quot;glyphName&quot;:&quot;'&quot;,&quot;glyphIndex&quot;:4,&quot;word&quot;:1}"></path><path d="M390.10031,355c-0.41697,0 -0.81906,-0.01489 -1.20625,-0.04468c-4.22931,-0.1787 -8.131,-1.31049 -11.70506,-3.39536c-4.05061,-2.35293 -6.80561,-5.51002 -8.26502,-9.47127l9.11386,-3.35069c0.7446,1.96574 2.27847,3.55917 4.60161,4.78031c2.05509,1.04244 4.28888,1.62322 6.70137,1.74236c3.72298,0.14892 6.80561,-0.75949 9.24789,-2.72522c2.05509,-1.6679 3.1422,-3.57406 3.26133,-5.7185c0.1787,-4.08039 -4.09528,-7.34172 -12.82196,-9.784c-13.6708,-3.84212 -20.29771,-10.34989 -19.88073,-19.52333c0.26805,-6.43332 3.02306,-11.24341 8.26502,-14.43028c3.99104,-2.44228 8.78624,-3.52939 14.38561,-3.26133c6.79072,0.29784 12.24117,2.66566 16.35134,7.10345l-7.10345,6.61202c-2.32314,-2.50184 -5.55469,-3.84212 -9.69465,-4.02082c-2.91882,-0.11914 -5.40577,0.25316 -7.46086,1.1169c-3.21666,1.37006 -4.89945,3.81234 -5.04837,7.32683c-0.1787,4.02082 4.09528,7.25237 12.82196,9.69465c7.86294,2.20401 13.43252,5.45045 16.70875,9.73932c2.26357,2.97839 3.3209,6.2695 3.17198,9.87335c-0.23827,5.06326 -2.53163,9.35213 -6.88007,12.86663c-4.05061,3.24644 -8.90538,4.86966 -14.56431,4.86966z" data-paper-data="{&quot;glyphName&quot;:&quot;S&quot;,&quot;glyphIndex&quot;:5,&quot;lastGlyphOfWord&quot;:true,&quot;word&quot;:1}"></path></g><g data-paper-data="{&quot;fillRule&quot;:&quot;evenodd&quot;,&quot;fillRuleOriginal&quot;:&quot;evenodd&quot;,&quot;isIcon&quot;:true,&quot;iconStyle&quot;:&quot;standalone&quot;,&quot;selectedEffects&quot;:{&quot;container&quot;:&quot;&quot;,&quot;transformation&quot;:&quot;&quot;,&quot;pattern&quot;:&quot;&quot;},&quot;bounds&quot;:{&quot;x&quot;:220.3709517621994,&quot;y&quot;:115.00000000000003,&quot;width&quot;:109.25809647560118,&quot;height&quot;:143.46898023743998},&quot;iconType&quot;:&quot;icon&quot;,&quot;rawIconId&quot;:&quot;3bfa093f-66ff-4157-bbf1-2df6585f3680&quot;,&quot;isSvgStockIcon&quot;:true,&quot;combineTerms&quot;:&quot;animal,duck&quot;,&quot;combineTermsExtended&quot;:{&quot;icon&quot;:[&quot;animal&quot;,&quot;duck&quot;]},&quot;isDetailed&quot;:true,&quot;suitableAsStandaloneIcon&quot;:true}" fill-rule="evenodd"><path d="M325.05755,232.49754c1.76437,-0.47137 2.84258,0.45608 3.69239,1.84321c0.98432,1.60621 1.00773,3.35027 0.71674,5.12515c-0.56312,3.44153 -2.04294,6.49315 -4.08659,9.28031c-2.64285,3.60399 -5.94007,6.41121 -10.03527,8.28548c-1.93352,0.88469 -3.9,1.42105 -5.95584,1.43729h-0.19137c-0.56431,-0.00454 -1.13555,-0.04826 -1.71468,-0.13498c-3.36269,-0.50339 -5.75778,-2.22332 -6.87924,-5.51648c-0.12758,-0.37509 -0.22291,-0.69093 -0.70169,-0.74302c-1.75314,-0.19041 -3.48478,-0.54711 -5.26324,-0.54878c-0.80513,-0.00072 -1.43993,0.2284 -2.04748,0.72701c-1.80904,1.48532 -3.83072,2.62756 -6.00195,3.48095c-1.35965,0.53444 -2.76828,0.92937 -4.23329,1.11118c-0.58653,0.07263 -1.12767,-0.00095 -1.65375,-0.20403c-0.97787,-0.37724 -1.40576,-1.06125 -1.29825,-2.11342c0.09819,-0.96281 0.25874,-1.91918 0.4028,-2.95725c-0.30605,-0.02126 -0.6109,-0.04563 -0.91432,-0.07024c-1.04357,-0.08362 -2.0728,-0.16652 -3.0963,-0.11348c-0.1584,0.2456 -0.0614,0.42383 0.03273,0.59657c0.0301,0.05543 0.05997,0.11038 0.08099,0.16676c0.1443,0.3868 0.32277,0.76213 0.44772,1.1549c0.57697,1.81477 -0.24632,3.21313 -2.12059,3.61068c-1.37088,0.29075 -2.75872,0.3383 -4.14919,0.21813c-2.93384,-0.25349 -5.79195,-0.90739 -8.4919,-2.05727c-1.99778,-0.85076 -3.83597,-2.04605 -5.47778,-3.48932c-0.35168,-0.30915 -0.67445,-0.45632 -1.1033,-0.38346c-1.88454,0.32014 -3.78557,0.32898 -5.68683,0.33806c-0.16414,0.00072 -0.3285,0.00143 -0.49287,0.00239c-0.46229,0.00287 -0.86391,0.07526 -1.20412,0.46636c-1.9813,2.27803 -4.60025,3.25351 -7.51092,3.61451c-2.84163,0.35263 -5.63977,0.03536 -8.34592,-0.80107c-3.3087,-1.02278 -6.04257,-2.96466 -8.18872,-5.70093c-1.20962,-1.54218 -2.31554,-3.1534 -2.84617,-5.069c-0.54687,-1.97461 -0.55666,-3.93178 0.46349,-5.78694c0.39898,-0.72558 0.37247,-1.34077 0.10727,-2.18868c-0.82711,-2.64452 0.11563,-4.999 2.68681,-6.45947c1.40098,-0.79582 2.92285,-1.14821 4.54076,-0.92865c0.3954,0.05376 0.66848,-0.00239 0.74923,-0.43817c0.49957,-2.6966 3.76263,-3.64723 6.28029,-2.95845c0.99435,0.27188 1.92826,0.65438 2.75203,1.24616c0.49264,0.35383 0.93056,0.37438 1.46716,0.21264c0.75879,-0.22864 1.47074,-0.56216 2.18437,-0.89473c0.36315,-0.16915 0.52417,-0.39922 0.51533,-0.87107c-0.01004,-0.52919 -0.08959,-1.03999 -0.13762,-1.5601c-0.33925,-3.67136 -0.31131,-7.33723 0.21956,-10.99164c0.37796,-2.60056 0.79414,-5.19061 1.79949,-7.64615c1.4533,-3.54952 3.19282,-6.94853 5.30601,-10.15067c0.30413,-0.46062 0.71698,-0.84957 1.19217,-1.40289c-2.2981,-0.71793 -4.2966,-1.72686 -6.16011,-3.01531c-3.2301,-2.23335 -5.72242,-5.04105 -7.04982,-8.80368c-0.81135,-2.29953 -0.81325,-4.6423 -0.44509,-6.99774c0.3125,-1.99778 0.71578,-3.98219 1.34986,-5.91117c0.55857,-1.69962 0.60373,-3.46208 0.50147,-5.21784c-0.14622,-2.5136 -0.28335,-5.02791 -0.13164,-7.54103c0.17655,-2.92452 0.74326,-5.78383 1.50873,-8.61756c0.85936,-3.1816 2.16789,-6.13957 3.89594,-8.93556c0.97238,-1.57324 2.09622,-3.0294 3.35648,-4.36326c1.64849,-1.74501 3.43222,-3.35409 5.47778,-4.6435c1.13937,-0.71817 2.3767,-1.24306 3.65847,-1.81215c-0.6938,-0.92172 -1.1948,-1.85898 -1.43634,-2.9477c-0.43267,-1.95072 0.01194,-3.71867 0.94872,-5.41232c0.32636,-0.59012 0.78889,-1.09613 1.05169,-1.729c0.15792,-0.38011 0.47926,-0.6164 0.89186,-0.51032c0.42478,0.10894 0.5323,0.49073 0.52609,0.89496c-0.00263,0.18098 -0.01051,0.36217 -0.01839,0.54331c-0.01481,0.34501 -0.02963,0.68988 -0.00932,1.0328c0.12997,2.19035 1.3747,3.52611 3.60686,3.90693c0.1682,-0.11439 0.13498,-0.26445 0.10249,-0.41172c-0.00693,-0.0311 -0.01362,-0.06211 -0.01864,-0.09262c-0.28717,-1.783 0.29864,-3.3431 1.27938,-4.77514c0.52895,-0.77216 1.15347,-1.4791 1.73522,-2.2152c0.22363,-0.28311 0.49001,-0.45465 0.87538,-0.37628c0.41547,0.08434 0.4599,0.43148 0.58533,0.74493c0.39278,0.98169 0.24083,2.10888 0.75855,3.04876c0.35455,0.64387 1.1451,1.95311 1.98035,1.0794c0.19662,-0.20571 0.3125,-0.47281 0.43769,-0.72821c0.8307,-1.69747 2.17649,-2.92309 3.75164,-3.92103c0.15816,-0.1001 0.31202,-0.2069 0.47114,-0.30557c0.18205,-0.11309 0.37222,-0.19875 0.56574,-0.20212h0.02365c0.11922,0.00209 0.23963,0.03622 0.36004,0.11516c0.36697,0.24058 0.39659,0.59991 0.29052,0.99889c-0.30891,1.16278 -0.45967,2.35089 -0.52298,3.54928c-0.06044,1.14439 0.23533,2.27372 1.10736,3.06596c0.09533,0.08673 0.19686,0.16843 0.31441,0.22099c0.17751,0.07932 0.37772,0.08601 0.57195,0.0915l1.28511,0.03656c0.53875,0.01529 1.0775,0.03058 1.61553,0.06021c4.07967,0.2253 7.89796,1.39286 11.66083,2.92213c2.30001,0.93462 4.53527,1.97843 6.61381,3.34549c2.9821,1.96123 5.43932,4.46407 7.60266,7.28109c4.32144,5.62662 6.71583,12.00009 7.48393,19.02817c0.46875,4.29039 1.02159,8.5717 1.34651,12.87713c0.31991,4.23878 -0.34499,8.31797 -2.08021,12.19432c-1.2077,2.69756 -2.90613,5.07139 -5.11679,7.05413c-2.50236,2.24434 -5.20208,4.18359 -8.38964,5.35832c-0.09533,0.03512 -0.16389,0.1443 -0.27547,0.24728c1.40743,1.37924 2.6794,2.85691 3.71461,4.51544c1.75672,2.81462 3.07719,5.82707 4.07465,8.99481c1.23995,3.93799 1.75458,7.97585 1.78826,12.08156c0.01648,1.98512 -0.02365,3.97454 -0.3813,5.94223c-0.24943,1.37159 -0.22697,1.38283 1.03831,2.00567l0.03656,0.01792c0.51008,0.2511 0.94275,0.41284 1.57443,0.16294c1.81096,-0.71674 3.42003,-0.07574 4.40268,1.60621c0.25802,0.44127 0.3426,1.15371 0.83715,1.23279c0.2425,0.03894 0.51485,-0.14812 0.79462,-0.33973c0.15529,-0.10655 0.31298,-0.21478 0.46875,-0.28646c0.54424,-0.25038 1.10831,-0.45728 1.66379,-0.68377c2.08236,-0.84909 4.80883,0.19973 5.48877,2.80602c0.05662,0.21741 0.10082,0.43912 0.17416,0.6508c0.09222,0.26662 0.22124,0.43984 0.57769,0.34451zM239.68248,182.59904c1.78778,3.67495 4.73763,6.18114 8.28978,7.95984c3.39255,1.6989 6.98293,2.90063 10.7458,3.55788c4.02663,0.70359 8.02507,1.5319 12.12862,1.76437c4.59237,0.26017 9.15249,0.05662 13.69779,-0.55284c4.13031,-0.55356 8.20544,-1.36706 12.16948,-2.70377c6.0655,-2.04533 10.94433,-5.54802 14.00409,-11.29028c1.98345,-3.72202 2.86575,-7.72523 2.602,-11.92889c-0.31943,-5.09122 -0.79319,-10.17384 -1.53429,-15.22229c-0.95636,-6.51466 -3.3744,-12.41173 -7.57376,-17.55217c-2.95271,-3.61451 -6.4492,-6.48455 -10.77494,-8.28643c-1.69389,-0.70575 -3.38968,-1.42057 -5.12706,-2.00519c-1.84368,-0.62022 -3.71485,-1.13985 -5.67178,-1.37399c-1.75959,-0.21048 -3.51798,-0.16939 -5.27495,-0.27547c-1.32788,-0.08003 -2.33967,-0.71745 -3.04374,-1.82576c-0.75663,-1.19098 -0.91671,-2.5222 -0.79176,-3.89451c0.01433,-0.15708 0.03584,-0.31343 0.05734,-0.47097c0.0485,-0.35333 0.09772,-0.71258 0.06904,-1.0994c-0.1615,0.05423 -0.27069,0.07407 -0.36171,0.12566c-0.12782,0.07263 -0.25205,0.15816 -0.361,0.25683c-1.09899,0.99459 -1.96936,2.14041 -2.50356,3.54617c-0.36769,0.96783 -0.95923,1.16805 -1.85706,0.6527c-1.2003,-0.68879 -2.14161,-1.62461 -2.61752,-2.97541c-0.14526,-0.41237 -0.14239,-0.89736 -0.57578,-1.28941c-1.26791,1.74095 -2.23431,3.50293 -1.34938,5.72792c0.04157,0.10465 0.09533,0.20761 0.11706,0.3168c0.13116,0.66155 -0.19208,1.05599 -0.84695,0.94036c-0.959,-0.16939 -1.92492,-0.34618 -2.85237,-0.63431c-1.41699,-0.44031 -2.3669,-1.406 -2.80626,-2.84377c-0.10584,-0.34642 -0.21502,-0.69165 -0.31991,-1.02923c-0.27021,0.02819 -0.3684,0.21454 -0.42693,0.37772c-0.65486,1.8229 -0.5753,3.61379 0.31895,5.33969c0.2425,0.46803 0.59202,0.85817 1.17019,0.97572c0.02747,0.00562 0.0559,0.01097 0.08481,0.01643c0.29673,0.0561 0.6453,0.12199 0.62117,0.54477c-0.02341,0.4114 -0.40902,0.50076 -0.7208,0.61926c-0.52609,0.19997 -1.06841,0.36028 -1.58685,0.57745c-2.3196,0.97166 -4.21704,2.53127 -6.05212,4.22038c-3.93441,3.62167 -6.5677,8.05111 -8.32083,13.04557c-0.85936,2.44861 -1.33074,4.99159 -1.67047,7.55894c-0.23079,1.7431 -0.44485,3.47808 -0.3328,5.25344c0.12997,2.05584 0.10536,4.12148 0.15267,6.18281c0.02963,1.28606 -0.11444,2.55923 -0.49718,3.7784c-0.67588,2.15332 -1.18477,4.33817 -1.48818,6.57223c-0.3469,2.55493 -0.02604,5.00497 1.11118,7.34273zM287.50627,168.51133c-0.85363,0.04085 -1.643,0.83691 -1.64873,1.66259c-0.00645,0.91982 0.87776,1.88836 1.71372,1.87665c0.95828,-0.01338 1.90939,-1.0192 1.88191,-1.98942c-0.02628,-0.92411 -0.87681,-1.60119 -1.9469,-1.54982zM287.4248,185.63203c-2.82084,1.55245 -5.85311,2.48277 -9.00365,3.05641c-3.02773,0.55117 -6.06885,0.99626 -9.7782,1.02756c-4.39288,-0.12328 -9.3171,-0.76333 -14.02009,-2.62015c-1.51948,-0.59991 -2.83374,-1.43777 -3.76956,-2.8734c-1.0106,-1.55078 -0.73036,-4.42681 1.52187,-5.32058c0.73585,-0.29219 1.48006,-0.52322 2.24792,-0.69763c1.31378,-0.29864 2.645,-0.51151 3.91195,-1.01538c1.33385,-0.53063 2.36189,-1.37709 3.18661,-2.54776c0.9492,-1.34747 1.93423,-2.68108 3.26187,-3.69908c1.35296,-1.03736 2.83422,-1.82576 4.50445,-2.22308c2.11103,-0.50219 4.01588,0.05351 5.764,1.21487c1.38473,0.91982 2.44813,2.20755 3.56553,3.41143c2.61012,2.81224 5.95226,3.9141 9.62506,4.29492c0.41379,0.043 0.83261,0.05997 1.20962,0.21956c2.03816,0.86152 2.62612,2.34564 1.60023,4.2352c-0.87084,1.60454 -2.25844,2.67343 -3.82762,3.5371zM251.95206,169.01186c-0.98073,-0.02676 -1.92205,0.83117 -1.95837,1.78491c-0.03249,0.85769 0.90739,1.72542 1.86973,1.72662c0.86223,0.00048 1.72399,-0.85268 1.74765,-1.7302c0.02485,-0.92578 -0.74875,-1.75648 -1.659,-1.78133zM251.80776,181.30819c-0.41618,1.04596 -0.11611,1.99157 0.59824,2.81391c0.70312,0.80967 1.59211,1.34364 2.58503,1.74239c4.52356,1.81477 9.26191,2.4166 14.08555,2.5523c2.5253,0.00311 5.01835,-0.29219 7.49635,-0.72438c3.29126,-0.57411 6.5278,-1.33815 9.53379,-2.86671c1.27532,-0.64841 2.50094,-1.37446 3.46781,-2.44885c1.44303,-1.60358 1.04715,-2.90159 -1.01729,-3.41453c-0.03631,-0.00908 -0.0731,-0.0172 -0.11038,-0.02126c-1.19599,-0.12734 -2.35233,-0.47066 -3.53471,-0.6582c-2.33776,-0.37103 -4.35466,-1.35582 -6.0495,-2.99429c-1.29323,-1.25022 -2.50475,-2.59029 -3.85222,-3.77768c-1.87833,-1.65519 -4.02161,-2.19728 -6.47094,-1.28845c-2.26298,0.83954 -4.00919,2.31004 -5.47754,4.16711c-0.58127,0.73514 -1.12504,1.50085 -1.72232,2.22236c-0.99459,1.20125 -2.3497,1.85061 -3.79775,2.29236c-1.18166,0.36052 -2.40752,0.57554 -3.59038,0.93271c-0.85196,0.25707 -1.76963,0.53038 -2.14376,1.47122zM288.49011,252.87198c0.19161,-0.05495 0.30772,-0.0645 0.39779,-0.11778c3.12999,-1.85587 5.72601,-4.331 8.08312,-7.06583c2.01427,-2.338 3.69812,-4.89651 5.07737,-7.6698c1.45737,-2.93026 2.64763,-5.95154 3.45682,-9.1188c1.04811,-4.10093 1.33385,-8.27879 1.0775,-12.48842c-0.25659,-4.21274 -1.09039,-8.3108 -2.59459,-12.27173c-1.35702,-3.57293 -3.12163,-6.88187 -5.68396,-9.75861c-0.50745,-0.56981 -0.84814,-0.60851 -1.48914,-0.39779c-5.92335,1.94738 -12.03114,2.87363 -18.23856,3.22938c-3.75068,0.21502 -7.49611,0.16414 -11.2284,-0.27403c-1.48818,-0.17464 -2.9661,-0.44175 -4.44448,-0.69213c-3.32829,-0.56383 -6.66828,-1.08633 -9.8709,-2.20373c-0.55571,-0.194 -0.88899,-0.1216 -1.22347,0.37199c-2.59936,3.83622 -4.76272,7.89414 -6.24517,12.29323c-0.55094,1.63512 -0.78721,3.34453 -1.10043,5.04009c-0.37008,2.00328 -0.59465,4.02018 -0.58152,6.03039c0.02557,3.93369 0.28168,7.86571 1.11739,11.72796c0.73322,3.38778 1.77846,6.66828 3.61451,9.64512c0.7478,1.21248 1.53477,2.40035 2.28711,3.60997c2.14734,3.453 4.88695,6.3565 8.20831,8.68589c1.61743,1.1346 3.35314,2.09072 5.36502,2.5437c-0.11731,-0.37772 -0.40257,-0.4998 -0.61806,-0.68854c-0.96473,-0.84503 -1.81358,-1.79399 -2.51503,-2.86718c-0.02891,-0.04444 -0.06164,-0.09079 -0.09533,-0.13857c-0.21359,-0.30318 -0.46755,-0.66394 -0.07836,-0.93295c0.30724,-0.21239 0.55261,0.10536 0.76022,0.37414c0.04014,0.05184 0.0786,0.10201 0.11611,0.14597c0.65629,0.77336 1.30231,1.55149 2.0427,2.25151c1.92922,1.82362 4.00106,3.26617 6.85272,3.07026c0.19782,-0.01362 0.39731,-0.0086 0.59991,-0.00382c0.38728,0.0098 0.78674,0.01959 1.21152,-0.09939c-0.29362,-0.45035 -0.70025,-0.64626 -1.05599,-0.90667c-1.82075,-1.33289 -3.58368,-2.72766 -4.87405,-4.62223c-0.17035,-0.25014 -0.35837,-0.48499 -0.39445,-0.7963c-0.01864,-0.1615 0.04252,-0.30844 0.19949,-0.35717c0.09198,-0.02843 0.24584,-0.01792 0.30724,0.04181c0.2683,0.26065 0.52776,0.53397 0.76428,0.82377c1.78133,2.18246 4.17571,3.64652 6.32974,5.3901c0.43721,0.35407 0.78077,0.11874 0.77407,-0.46564c-0.00669,-0.57841 -0.23604,-1.10473 -0.48953,-1.6031c-0.59465,-1.16947 -1.22228,-2.32199 -1.84918,-3.47474c-1.59163,-2.92644 -3.4444,-5.7014 -4.9818,-8.66057c-1.95311,-3.75953 -4.06175,-7.4457 -5.41734,-11.48356c-0.69213,-2.06158 -1.38904,-4.12649 -1.56512,-6.3209c-0.03703,-0.46158 0.00908,-0.89783 0.16366,-1.32286c0.06976,-0.19185 0.25086,-0.27236 0.45776,-0.24178c0.1615,0.02365 0.27069,0.12782 0.30987,0.28407c0.03631,0.14478 0.05448,0.29458 0.07335,0.44295c0.22363,1.76246 0.8209,3.42457 1.39453,5.08907c1.58399,4.59548 4.06055,8.76473 6.28793,13.05177c1.69341,3.25948 3.77075,6.30418 5.40157,9.59926c0.20833,0.42097 0.474,0.59704 0.9707,0.55906c1.38402,-0.1056 2.77186,-0.16509 4.15922,-0.21478c0.35335,-0.01266 0.52728,-0.08099 0.59919,-0.47567c0.21502,-1.18023 0.53302,-2.34253 0.72653,-3.52563c0.43577,-2.66268 0.79749,-5.33778 1.23279,-8.0007c0.53875,-3.29651 0.91121,-6.60091 0.75711,-9.9495c-0.07239,-1.57228 -0.11325,-3.14576 -0.16055,-4.719c-0.00908,-0.29888 -0.00143,-0.60158 0.03392,-0.89831c0.0442,-0.37055 0.32253,-0.65677 0.63264,-0.68329c0.36506,-0.0313 0.73179,0.16533 0.84527,0.60158c0.16127,0.61998 0.25134,1.24999 0.27594,1.89075c0.04563,1.19982 0.04444,2.40489 0.16055,3.59826c0.21598,2.22188 0.01768,4.43015 -0.19925,6.6291c-0.19472,1.97174 -0.54807,3.92963 -0.87514,5.88632c-0.40806,2.44001 -0.6754,4.90368 -1.2648,7.31406c-0.43577,1.78277 -0.81158,3.58034 -1.20507,5.37338c-0.01194,0.05376 -0.02413,0.10775 -0.03656,0.16198c-0.09102,0.39588 -0.1842,0.80226 -0.08553,1.26552c0.39946,-0.2198 0.59251,-0.49741 0.74756,-0.7865c0.53182,-0.99125 1.0548,-1.98751 1.55819,-2.99357c0.50339,-1.00654 0.96831,-2.03219 1.47433,-3.03729l0.01386,-0.02747c0.12543,-0.25038 0.29386,-0.58629 0.64817,-0.4396c0.38011,0.15768 0.26997,0.458 0.16724,0.738c-0.01529,0.04181 -0.03034,0.0829 -0.04372,0.12328c-0.02365,0.0712 -0.05041,0.14168 -0.08003,0.21072c-0.95087,2.2054 -1.84154,4.44138 -3.28456,6.39448c-0.10871,0.14717 -0.2198,0.30079 -0.18277,0.53803c0.64243,0.02532 1.2433,-0.15457 1.84368,-0.33448c0.32946,-0.09867 0.65892,-0.19734 0.99483,-0.26209c0.95613,-0.1842 1.61266,-0.76428 2.11939,-1.54337c0.22363,-0.34403 0.39086,-0.72486 0.58677,-1.08729c0.74899,-1.38593 1.49655,-2.77257 2.25103,-4.1554c0.16795,-0.30748 0.40113,-0.62284 0.79104,-0.43673c0.40926,0.19495 0.24297,0.51343 0.09605,0.79438c-0.01242,0.02389 -0.02485,0.04755 -0.03679,0.07096c-0.66298,1.30326 -1.33862,2.60008 -1.9942,3.90717c-0.03153,0.06283 -0.07,0.12471 -0.10918,0.18779c-0.11014,0.17727 -0.22769,0.36649 -0.22458,0.6281zM246.75333,250.71244c0.64268,-0.5452 1.01036,-1.17712 1.27723,-1.92157c0.50984,-1.42248 0.4439,-2.82609 0.10369,-4.30162c-0.55045,-2.38721 -1.22705,-4.70108 -2.41349,-6.86371c-0.74087,-1.35009 -1.62197,-2.59507 -2.50284,-3.84864c-1.71921,-2.44646 -3.72225,-4.59213 -6.34527,-6.08748c-1.27101,-0.72438 -2.62636,-1.07582 -4.09305,-0.71698c-0.94251,0.23079 -1.58375,0.78172 -1.86447,1.74215c-0.46922,1.60405 -0.57721,1.67358 -2.26609,1.68959c-0.07626,0.00072 -0.15262,-0.00167 -0.22893,-0.00382c-0.11138,-0.00334 -0.22271,-0.00645 -0.33372,-0.00072c-1.24808,0.06475 -2.45315,0.291 -3.54642,0.94347c-1.70082,1.01514 -2.38124,3.24323 -1.35129,4.75818c0.39803,0.58558 0.30438,1.10688 -0.01362,1.67597c-0.66202,1.18453 -1.26218,2.39462 -1.1788,3.67806c-0.07741,1.01156 0.11802,1.84225 0.41666,2.66196c0.69237,1.89983 1.83652,3.5015 3.18972,4.97965c1.73498,1.89505 3.81638,3.23249 6.25496,4.03547c2.48588,0.81876 5.03101,1.15275 7.63731,0.94609c2.03959,-0.16198 3.98362,-0.62309 5.72481,-1.8014c0.64315,-0.43506 0.99053,-1.10402 1.53358,-1.56464zM243.41836,230.86194c-0.22505,-1.26241 -0.45011,-2.52506 -0.68974,-3.8699c-0.83643,0.32277 -1.55842,0.60134 -2.44813,0.9449c1.2218,0.94179 1.99468,2.09168 3.13787,2.925zM324.09115,247.77048c1.68887,-2.31291 3.04422,-4.81623 3.60972,-7.66693c0.30772,-1.55054 0.52226,-3.10945 -0.14119,-4.64182c-0.60063,-1.38617 -1.35487,-1.79829 -2.79671,-1.4889c-0.8049,0.17274 -1.19409,-0.02031 -1.48125,-0.78435c-0.18444,-0.49025 -0.31727,-0.99985 -0.48356,-1.49726c-0.45823,-1.36992 -1.62795,-2.07496 -3.06716,-1.83126c-0.36649,0.06188 -0.72916,0.16987 -1.07988,0.29506c-0.78005,0.27833 -1.49153,0.69332 -2.20731,1.10808c-0.90452,0.52393 -1.29299,0.4114 -1.86997,-0.43841c-0.35789,-0.5268 -0.67206,-1.0849 -1.04954,-1.59689c-0.55667,-0.75473 -1.28773,-0.99913 -2.22594,-0.85435c-0.76834,0.1185 -2.23168,0.44987 -2.83016,0.97476c-1.5687,1.37566 -2.23025,3.14217 -2.97709,5.14235c-0.26161,0.70097 -0.45155,1.42296 -0.72486,2.11556c-0.70217,1.77894 -1.27245,3.6016 -1.82696,5.42928c-0.69763,2.29929 -1.27723,4.62415 -1.39333,7.10645c0.03034,0.42264 0.04802,0.91097 0.10321,1.39501c0.26902,2.3509 2.04246,5.13255 4.89651,5.80533c2.39342,0.56431 4.67432,0.47926 6.94924,-0.35884c4.39527,-1.61935 7.86117,-4.46671 10.59624,-8.21285zM294.82822,250.58152c1.93017,-0.1228 3.62789,-0.02819 5.38198,0.35789c-0.16175,-1.50992 0.03249,-2.94818 0.22553,-4.37735c0.12376,-0.91575 0.2468,-1.82768 0.27547,-2.75227c-0.97572,1.13292 -1.8143,2.32557 -2.78572,3.41071c-0.97428,1.088 -2.07328,2.06731 -3.09726,3.36102zM249.60714,245.23825c-0.00549,1.68983 -0.01075,3.36149 -0.73585,5.03293c1.82434,-0.15123 3.45133,-0.28621 5.33682,-0.4427c-1.81382,-1.74358 -3.24825,-3.51846 -4.595,-5.42713c-0.00406,0.27953 -0.00501,0.55857 -0.00598,0.83691z" data-paper-data="{&quot;isPathIcon&quot;:true}"></path></g></g></g></svg>